<?xml version="1.0" encoding="utf-8"?>
<!-- Generator: Adobe Illustrator 27.6.1, SVG Export Plug-In . SVG Version: 6.00 Build 0)  -->
<svg version="1.1" id="Capa_1" xmlns="http://www.w3.org/2000/svg" xmlns:xlink="http://www.w3.org/1999/xlink" x="0px" y="0px"
	 viewBox="0 0 31.9 32" style="enable-background:new 0 0 31.9 32;" xml:space="preserve">
<style type="text/css">
	.st0{fill:#B3B3B3;}
</style>
<path class="st0" d="M28.1,24.4c-0.5,1.1-1,2-1.6,2.9c-0.9,1.2-1.5,2.1-2.1,2.5c-0.8,0.8-1.7,1.2-2.7,1.2c-0.7,0-1.5-0.2-2.5-0.6
	c-1-0.4-1.9-0.6-2.7-0.6c-0.9,0-1.8,0.2-2.7,0.6c-1,0.4-1.8,0.6-2.4,0.6c-0.9,0-1.8-0.4-2.7-1.2c-0.6-0.5-1.3-1.4-2.2-2.6
	c-0.9-1.3-1.7-2.8-2.3-4.6c-0.6-1.9-1-3.7-1-5.5c0-2,0.4-3.8,1.3-5.2c0.7-1.2,1.6-2.1,2.7-2.8c1.1-0.7,2.4-1,3.7-1
	c0.7,0,1.7,0.2,2.9,0.7c1.2,0.4,1.9,0.7,2.3,0.7c0.2,0,1.1-0.3,2.5-0.8C20,8.2,21.2,8,22.1,8.1c2.5,0.2,4.4,1.2,5.7,3
	c-2.3,1.4-3.4,3.3-3.4,5.8c0,1.9,0.7,3.5,2.1,4.8c0.6,0.6,1.3,1,2.1,1.4C28.5,23.5,28.3,24,28.1,24.4L28.1,24.4z M22.3,1.6
	c0,1.5-0.5,2.9-1.6,4.2c-1.3,1.5-2.9,2.4-4.7,2.3c0-0.2,0-0.4,0-0.6c0-1.4,0.6-3,1.7-4.3c0.6-0.6,1.3-1.2,2.1-1.6
	c0.9-0.4,1.7-0.6,2.4-0.7C22.3,1.2,22.3,1.4,22.3,1.6L22.3,1.6z"/>
</svg>
